# xmcd
#
# Track frame offsets: 
#        150
#        17633
#        37442
#        53573
#        68397
#        84920
#        101125
#        133301
#        152518
#        171601
#        190355
#
# Disc length: 2729 seconds
#
# Revision: 0
# Processed by: cddbd v1.5.2PL0 Copyright (c) Steve Scherf et al.
# Submitted via: ExactAudioCopyFreeDBPlugin 1.0
#
DISCID=940aa70b
DTITLE=Jeremiah Johnson Band With The Sliders - 9th and Russell
DYEAR=2011
DGENRE=Blues
TTITLE0=I've Been Evil
TTITLE1=Whiskey After Midnight
TTITLE2=9th and Russell
TTITLE3=Candy Store
TTITLE4=Lonely Guitar Man
TTITLE5=I Can Barely Breathe
TTITLE6=Some Things Are Sacred
TTITLE7=One Eyed Monster
TTITLE8=Good Morning Fool
TTITLE9=Talk To Me
TTITLE10=Brown Eyed Senorita
EXTD=
EXTT0=
EXTT1=
EXTT2=
EXTT3=
EXTT4=
EXTT5=
EXTT6=
EXTT7=
EXTT8=
EXTT9=
EXTT10=
PLAYORDER=
